<svg width="30" height="30" viewBox="0 0 30 30" fill="none" xmlns="http://www.w3.org/2000/svg">
<path d="M16.0714 30H13.9286C12.7446 30 11.7857 29.0741 11.7857 27.931V25.8621H18.2143V27.931C18.2143 29.0741 17.2553 30 16.0714 30Z" stroke="black" stroke-width="2" stroke-miterlimit="10" stroke-linejoin="round"/>
<path d="M22.5 14.4828C22.5 17.0876 21.2293 19.5403 19.0714 21.1034L18.2143 21.7241V25.8621H11.7857V21.7241L10.9286 21.1034C8.77071 19.5403 7.5 17.0876 7.5 14.4828C7.5 10.4834 10.8579 7.24138 15 7.24138C19.1421 7.24138 22.5 10.4834 22.5 14.4828Z" stroke="black" stroke-width="2" stroke-miterlimit="10" stroke-linejoin="round"/>
<path d="M15 4.13793V0" stroke="black" stroke-width="2" stroke-miterlimit="10" stroke-linejoin="round"/>
<path d="M7.42499 7.16793L4.39392 4.24138" stroke="black" stroke-width="2" stroke-miterlimit="10" stroke-linejoin="round"/>
<path d="M22.575 7.16793L25.6061 4.24138" stroke="black" stroke-width="2" stroke-miterlimit="10" stroke-linejoin="round"/>
<path d="M4.28571 14.4828H0" stroke="black" stroke-width="2" stroke-miterlimit="10" stroke-linejoin="round"/>
<path d="M25.7143 14.4828H30" stroke="black" stroke-width="2" stroke-miterlimit="10" stroke-linejoin="round"/>
</svg>
