<svg width="29" height="28" viewBox="0 0 29 28" fill="none" xmlns="http://www.w3.org/2000/svg">
<path d="M24.3438 11.1875H23.25V8.375C23.25 7.8575 22.7611 7.4375 22.1562 7.4375H1.375C0.77125 7.4375 0.28125 7.8575 0.28125 8.375C0.28125 8.8925 0.77125 9.3125 1.375 9.3125H21.0625V20.5625C21.0625 23.1472 18.6092 25.25 15.5938 25.25H7.9375C4.92203 25.25 2.46875 23.1472 2.46875 20.5625V12.125C2.46875 11.6075 1.97875 11.1875 1.375 11.1875C0.77125 11.1875 0.28125 11.6075 0.28125 12.125V20.5625C0.28125 24.1803 3.71563 27.125 7.9375 27.125H15.5938C19.8145 27.125 23.25 24.1803 23.25 20.5625V19.625H24.3438C26.7566 19.625 28.7188 17.9431 28.7188 15.875V14.9375C28.7188 12.8694 26.7566 11.1875 24.3438 11.1875ZM26.5312 15.875C26.5312 16.9091 25.5502 17.75 24.3438 17.75H23.25V13.0625H24.3438C25.5502 13.0625 26.5312 13.9034 26.5312 14.9375V15.875Z" fill="black"/>
<path d="M6.84375 6.5C7.4475 6.5 7.9375 6.08 7.9375 5.5625V3.6875C7.9375 3.17 7.4475 2.75 6.84375 2.75C6.24 2.75 5.75 3.17 5.75 3.6875V5.5625C5.75 6.08 6.24 6.5 6.84375 6.5Z" fill="black"/>
<path d="M11.2188 6.5C11.8225 6.5 12.3125 6.08 12.3125 5.5625V1.8125C12.3125 1.295 11.8225 0.875 11.2188 0.875C10.615 0.875 10.125 1.295 10.125 1.8125V5.5625C10.125 6.08 10.615 6.5 11.2188 6.5Z" fill="black"/>
<path d="M15.5938 6.5C16.1986 6.5 16.6875 6.08 16.6875 5.5625V3.6875C16.6875 3.17 16.1986 2.75 15.5938 2.75C14.99 2.75 14.5 3.17 14.5 3.6875V5.5625C14.5 6.08 14.99 6.5 15.5938 6.5Z" fill="black"/>
</svg>
